HIERARCHY
ROOT Hips
{
	OFFSET 0.00000 0.00000 0.00000
	CHANNELS 6 Xposition Yposition Zposition Zrotation Yrotation Xrotation 
	JOINT LHipJoint
	{
		OFFSET 0 0 0
		CHANNELS 3 Zrotation Yrotation Xrotation
		JOINT LeftHip
		{
			OFFSET 1.64577 -1.42384 0.94276
			CHANNELS 3 Zrotation Yrotation Xrotation
			JOINT LeftKnee
			{
				OFFSET 2.11538 -5.81197 0.00000
				CHANNELS 3 Zrotation Yrotation Xrotation
				JOINT LeftAnkle
				{
					OFFSET 2.36541 -6.49893 0.00000
					CHANNELS 3 Zrotation Yrotation Xrotation
					JOINT LeftToe
					{
						OFFSET 0.17759 -0.48793 1.73865
						CHANNELS 3 Zrotation Yrotation Xrotation
						End Site
						{
							OFFSET 0.00000 -0.00000 0.91205
						}
					}
				}
			}
		}
	}
	JOINT RHipJoint
	{
		OFFSET 0 0 0
		CHANNELS 3 Zrotation Yrotation Xrotation
		JOINT RightHip
		{
			OFFSET -1.43750 -1.42384 0.94276
			CHANNELS 3 Zrotation Yrotation Xrotation
			JOINT RightKnee
			{
				OFFSET -2.10480 -5.78291 0.00000
				CHANNELS 3 Zrotation Yrotation Xrotation
				JOINT RightAnkle
				{
					OFFSET -2.34880 -6.45329 0.00000
					CHANNELS 3 Zrotation Yrotation Xrotation
					JOINT RightToe
					{
						OFFSET -0.22842 -0.62757 1.80469
						CHANNELS 3 Zrotation Yrotation Xrotation
						End Site
						{
							OFFSET -0.00000 -0.00000 0.95886
						}
					}
				}
			}
		}
	}
	JOINT lowerback
	{
		OFFSET 0 0 0
		CHANNELS 3 Zrotation Yrotation Xrotation
		JOINT Chest
		{
			OFFSET 0.06217 1.93758 -0.49272
			CHANNELS 3 Zrotation Yrotation Xrotation
			JOINT Chest2
			{
				OFFSET -0.03114 2.03621 -0.05830
				CHANNELS 3 Zrotation Yrotation Xrotation
				JOINT lowerneck
				{
					OFFSET 0 0 0
					CHANNELS 3 Zrotation Yrotation Xrotation
					JOINT Neck
					{
						OFFSET 0.04421 1.41010 0.26562
						CHANNELS 3 Zrotation Yrotation Xrotation
						JOINT Head
						{
							OFFSET -0.13407 1.43847 0.06181
							CHANNELS 3 Zrotation Yrotation Xrotation
							End Site
							{
								OFFSET -0.04980 1.45844 -0.00689
							}
						}
					}
				}
				JOINT LeftCollar
				{
					OFFSET 0 0 0
					CHANNELS 3 Zrotation Yrotation Xrotation
					JOINT LeftShoulder
					{
						OFFSET 2.18382 1.47753 -0.35694
CHANNELS 3 Zrotation Xrotation Yrotation
						JOINT LeftElbow
						{
OFFSET 0 -5.054600 0.000000
CHANNELS 3 Zrotation Xrotation Yrotation
							JOINT LeftWrist
							{
OFFSET 0 -3.390130 0.000000
CHANNELS 3 Zrotation Xrotation Yrotation
								JOINT lhand
								{
									OFFSET 0 0 0
CHANNELS 3 Zrotation Xrotation Yrotation
									JOINT LFingers
									{
OFFSET 0 -0.572420 -0.000000
CHANNELS 3 Zrotation Xrotation Yrotation
										End Site
										{
OFFSET 0 -0.461500 -0.000000
										}
									}
								}
								JOINT LThumb
								{
OFFSET 0 0.000000 0.000000
CHANNELS 3 Zrotation Xrotation Yrotation
									End Site
									{
OFFSET 0 -0.468550 0.468550
									}
								}
							}
						}
					}
				}
				JOINT RightCollar
				{
					OFFSET 0 0 0
					CHANNELS 3 Zrotation Yrotation Xrotation
					JOINT RightShoulder
					{
						OFFSET -2.06033 1.72839 -0.47437
CHANNELS 3 Zrotation Xrotation Yrotation
						JOINT RightElbow
						{
OFFSET 0 -5.070100 0.000000
CHANNELS 3 Zrotation Xrotation Yrotation
							JOINT RightWrist
							{
OFFSET 0 -3.149570 -0.000000
CHANNELS 3 Zrotation Xrotation Yrotation
								JOINT rhand
								{
									OFFSET 0 0 0
CHANNELS 3 Zrotation Xrotation Yrotation
									JOINT RFingers
									{
OFFSET 0 -0.718190 -0.000000
CHANNELS 3 Zrotation Xrotation Yrotation
										End Site
										{
OFFSET 0 -0.579020 -0.000000
										}
									}
								}
								JOINT RThumb
								{
OFFSET 0 0.000000 0.000000
CHANNELS 3 Zrotation Xrotation Yrotation
									End Site
									{
OFFSET 0 -0.587860 0.587860
									}
								}
							}
						}
					}
				}
			}
		}
	}
}
MOTION
Frames: 6
Frame Time: 0.008333333333333333
-30.553200 14.877300 1.018000 -4.533500 88.431100 -7.670700 0.000000 0.000000 0.000000 -23.360800 -17.821800 -2.414400 3.330300 11.211500 32.996400 1.466400 12.521700 -30.415000 0.307400 -3.564300 -9.853900 0.000000 0.000000 0.000000 25.190900 16.102100 -3.306400 -3.322200 -11.199200 32.954700 -2.434100 -17.514900 -39.783700 -0.739800 5.494700 -15.325100 -0.630600 2.581400 7.215500 -1.714000 3.434800 2.576300 -1.691100 1.751600 -1.311200 5.857100 2.803600 -10.133500 0.256100 3.018600 18.366900 -0.590100 1.967800 7.407600 0.000000 -0.000000 0.000000 6.839900 3.479200 -42.227100 16.065300 -25.609100 3.674100 15.680900 5.328900 -11.597300 0.000000 0.000000 0.000000 -7.125000 0.000000 0.000000 -10.259300 41.789000 -0.822200 0.000000 -0.000000 0.000000 0.472200 8.687200 26.655400 -20.354800 -31.067400 -5.713300 -6.076500 -4.591400 -1.370500 0.000000 0.000000 0.000000 7.125000 0.000000 -0.000000 15.776500 28.443900 6.588900
-30.554721 14.877389 1.020595 -11.966361 88.380453 -15.158862 0.000000 0.000000 0.000000 -23.128682 -17.842113 -2.472385 3.379247 11.284965 33.247040 1.492171 12.455304 -30.526853 0.320196 -3.636960 -10.057473 0.000000 0.000000 0.000000 25.530754 16.315337 -3.127793 -3.326853 -11.206269 32.978860 -2.477588 -17.542819 -40.010001 -0.688348 5.303744 -14.777109 -0.386044 2.565562 7.310530 -1.687245 3.428536 2.559388 -1.805101 1.748468 -1.368827 5.995887 2.860779 -10.067104 0.294756 3.073900 18.407257 -0.595290 2.009499 7.413237 0.000000 0.000000 0.000000 6.879451 3.485374 -42.373404 16.040155 -25.575097 3.663273 16.662791 5.283801 -11.520792 0.000000 0.000000 0.000000 -7.125000 0.000000 0.000000 -9.380403 41.804570 -0.746766 0.000000 0.000000 0.000000 0.526516 8.858290 27.766862 -20.530812 -31.276431 -5.804393 -8.442685 -7.431753 -0.505115 0.000000 0.000000 0.000000 7.125000 0.000000 0.000000 14.100135 29.323871 5.546340
-30.555216 14.866029 1.024295 -11.429923 88.394873 -14.634766 0.000000 0.000000 0.000000 -22.522982 -15.917913 -3.485924 3.393686 11.306550 33.320878 1.501517 10.991702 -29.432438 0.424986 -4.174723 -11.570047 0.000000 0.000000 0.000000 25.516609 16.264673 -3.194846 -3.343667 -11.231658 33.065166 -2.478436 -17.500458 -39.980456 -0.688775 5.305700 -14.782663 -0.417392 2.559278 7.324148 -1.707316 3.417535 2.554794 -1.808235 1.743046 -1.381917 6.141624 2.929014 -10.075409 0.298984 3.144520 18.515918 -0.609719 2.057357 7.455830 0.000000 0.000000 0.000000 6.918450 3.467622 -42.572061 16.041938 -25.577496 3.664053 17.583958 5.149945 -11.524750 0.000000 0.000000 0.000000 -7.125000 0.000000 0.000000 -8.569495 41.897447 -0.661699 0.000000 0.000000 0.000000 0.569935 9.014851 28.813020 -20.734225 -31.516574 -5.910411 -10.834928 -10.238703 0.031302 0.000000 0.000000 0.000000 7.125000 0.000000 0.000000 12.328381 29.891851 4.647654
-30.551946 14.867518 1.026774 -6.887222 88.305021 -10.053443 0.000000 0.000000 0.000000 -22.646865 -15.941738 -3.479626 3.392988 11.305482 33.317299 1.516958 11.027589 -29.554176 0.399932 -4.056421 -11.235992 0.000000 0.000000 0.000000 25.367838 16.254083 -3.271552 -3.352791 -11.245387 33.111973 -2.459093 -17.454008 -39.852562 -0.713430 5.397691 -15.046547 -0.543053 2.577060 7.211793 -1.746765 3.434102 2.560808 -1.773809 1.751488 -1.317959 6.265150 3.009056 -10.093526 0.271795 3.240041 18.632239 -0.628185 2.112606 7.503482 0.000000 0.000000 0.000000 6.953473 3.476595 -42.812395 16.113222 -25.673931 3.694922 18.600051 4.767919 -11.550856 0.000000 0.000000 0.000000 -7.125000 0.000000 0.000000 -7.676334 42.023413 -0.568230 0.000000 0.000000 0.000000 0.574324 9.165233 29.974095 -20.995155 -31.822327 -6.047575 -13.546664 -13.317116 0.419863 0.000000 0.000000 0.000000 7.125000 0.000000 0.000000 10.263287 30.324572 3.738698
-30.549010 14.870237 1.028832 -3.733320 88.213308 -6.868334 0.000000 0.000000 0.000000 -22.836058 -16.262350 -3.294765 3.385923 11.294942 33.281293 1.525559 11.302669 -29.823289 0.365562 -3.883605 -10.749509 0.000000 0.000000 0.000000 25.267435 16.273851 -3.321647 -3.361778 -11.258896 33.158116 -2.457883 -17.390987 -39.796503 -0.722783 5.432639 -15.146682 -0.633630 2.590203 7.117295 -1.772006 3.446708 2.563958 -1.745123 1.757854 -1.265803 6.361697 3.066844 -10.092427 0.234969 3.311595 18.696909 -0.648382 2.152149 7.529569 0.000000 0.000000 0.000000 6.977334 3.489256 -43.030373 16.178636 -25.762264 3.723267 19.561891 4.409016 -11.534884 0.000000 0.000000 0.000000 -7.125000 0.000000 0.000000 -6.821036 42.101350 -0.490647 0.000000 0.000000 0.000000 0.563458 9.310488 31.030247 -21.243502 -32.111169 -6.179043 -16.049881 -16.174046 0.601039 0.000000 0.000000 0.000000 7.125000 0.000000 0.000000 8.320266 30.546074 2.967781
-30.546815 14.871743 1.030606 -1.850158 88.138157 -4.963868 0.000000 0.000000 0.000000 -22.968492 -16.471576 -3.123296 3.365158 11.263861 33.175147 1.521558 11.525263 -29.971891 0.345920 -3.778428 -10.454280 0.000000 0.000000 0.000000 25.201665 16.286233 -3.349635 -3.365041 -11.263787 33.174866 -2.465044 -17.322942 -39.776010 -0.720478 5.424090 -15.122175 -0.701057 2.596008 7.048949 -1.782140 3.450870 2.564474 -1.714608 1.759816 -1.230603 6.425185 3.098832 -10.077565 0.191318 3.354558 18.715053 -0.668863 2.173644 7.536347 0.000000 0.000000 0.000000 6.985194 3.498873 -43.210833 16.229820 -25.831255 3.745553 20.398045 4.110283 -11.478102 0.000000 0.000000 0.000000 -7.125000 0.000000 0.000000 -6.068354 42.124801 -0.432249 0.000000 0.000000 0.000000 0.537108 9.441759 31.909942 -21.458198 -32.359033 -6.293521 -18.165779 -18.631742 0.590427 0.000000 0.000000 0.000000 7.125000 0.000000 0.000000 6.653616 30.562962 2.359948
